<?xml version="1.0" encoding="utf-8"?>
<!-- Generator: Adobe Illustrator 26.1.0, SVG Export Plug-In . SVG Version: 6.00 Build 0)  -->
<svg version="1.1" id="Layer_1" xmlns="http://www.w3.org/2000/svg" xmlns:xlink="http://www.w3.org/1999/xlink" x="0px" y="0px"
	 viewBox="0 0 411 112" style="enable-background:new 0 0 411 112;" xml:space="preserve">
<style type="text/css">
	.st0{fill:#444444;}
</style>
<g>
	<path class="st0" d="M36.6,50.4c1.2-0.3,2.2-0.9,3.1-1.6c0.8-0.7,1.5-1.7,2-2.9c0.5-1.2,0.7-2.6,0.7-4.2v-2.9
		c0-1.7-0.2-3.1-0.5-4.4c-0.3-1.3-0.9-2.3-1.6-3.2c-0.8-0.9-1.8-1.6-3-2c-1.2-0.5-2.7-0.7-4.5-0.7h-2.1v22.4h2.1
		C34.1,50.9,35.4,50.7,36.6,50.4z"/>
	<path class="st0" d="M41.1,61.1c-0.8-0.9-1.8-1.5-3-2c-1.2-0.5-2.7-0.7-4.5-0.7h-3.1v25.4h3.1c1.4,0,2.7-0.2,3.9-0.6
		c1.2-0.4,2.2-1,3-1.7c0.8-0.8,1.5-1.8,2-3c0.5-1.2,0.7-2.6,0.7-4.3v-5.5c0-1.7-0.2-3.1-0.5-4.4C42.4,63.1,41.9,62,41.1,61.1z"/>
	<polygon class="st0" points="180.9,91 187,57 188.8,42.2 189.6,42.2 191.4,57 197.3,91 208.1,91 218,20.3 207.7,20.3 203.4,63 
		202.9,73 201.8,73 201,61.8 193.7,20.3 185.1,20.3 177.5,61.8 176.5,73 175.5,73 174.9,63 170.2,20.3 159.9,20.3 170.1,91 	"/>
	<path class="st0" d="M226.8,83.6c0.9,1.7,2,3.1,3.2,4.2c1.2,1.1,2.4,1.9,3.7,2.5c1.3,0.6,2.6,1,3.9,1.1c1.3,0.2,2.6,0.3,3.7,0.3
		c1,0,2.2-0.1,3.4-0.3c1.3-0.2,2.5-0.6,3.8-1.2c1.3-0.6,2.5-1.4,3.8-2.5c1.2-1.1,2.3-2.5,3.3-4.2c0.9-1.8,1.7-3.9,2.3-6.4
		c0.6-2.5,0.9-5.5,0.9-9v-25c0-3.6-0.3-6.7-0.8-9.3c-0.6-2.6-1.3-4.7-2.3-6.4c-0.9-1.7-2-3.1-3.2-4.1c-1.2-1-2.5-1.8-3.7-2.3
		c-1.3-0.5-2.6-0.8-3.9-1c-1.3-0.2-2.4-0.2-3.5-0.2c-1.1,0-2.3,0.1-3.6,0.2c-1.3,0.2-2.6,0.5-3.9,1.1c-1.3,0.5-2.6,1.3-3.8,2.3
		c-1.2,1-2.3,2.4-3.2,4.1c-0.9,1.7-1.7,3.9-2.3,6.4c-0.6,2.5-0.8,5.6-0.8,9.1v25c0,3.5,0.3,6.6,0.8,9.1
		C225.1,79.7,225.8,81.8,226.8,83.6z M234.9,40c0-2.3,0.1-4.2,0.4-5.7c0.3-1.5,0.7-2.7,1.2-3.7c0.5-0.9,1.2-1.6,2-2
		c0.8-0.4,1.7-0.6,2.8-0.6c1,0,2,0.2,2.8,0.6c0.8,0.4,1.4,1,1.9,2c0.5,0.9,0.9,2.1,1.2,3.7c0.3,1.5,0.4,3.4,0.4,5.7v32.2
		c0,2.2-0.1,4-0.4,5.5c-0.3,1.4-0.6,2.6-1.2,3.5c-0.5,0.9-1.2,1.5-1.9,1.9c-0.8,0.4-1.7,0.5-2.8,0.5c-1.1,0-2-0.2-2.8-0.5
		c-0.8-0.4-1.5-1-2-1.9c-0.5-0.9-0.9-2-1.2-3.5c-0.3-1.4-0.4-3.3-0.4-5.5V40z"/>
	<path class="st0" d="M279.4,64.5h4l9.4,26.5h11.3l-11.3-28.3c3-1.5,5.3-3.9,6.8-7.3c1.5-3.4,2.3-7.8,2.3-13.1v-1.8
		c0-3.2-0.3-5.9-1-8.2c-0.7-2.2-1.6-4.1-2.8-5.6c-1.1-1.5-2.5-2.7-3.9-3.5c-1.5-0.9-3-1.5-4.6-1.9c-1.6-0.4-3.2-0.7-4.8-0.8
		c-1.6-0.1-3-0.2-4.4-0.2h-11.6V91h10.5V64.5z M279.4,28.1h1.6c2,0,3.6,0.2,4.9,0.6c1.3,0.4,2.3,1,3.1,1.9c0.8,0.9,1.3,1.9,1.7,3.3
		c0.3,1.3,0.5,2.9,0.5,4.7v5.6c0,2.4-0.2,4.4-0.5,6c-0.4,1.6-0.9,2.9-1.7,3.9c-0.8,1-1.8,1.7-3.1,2.1c-1.3,0.4-2.9,0.6-4.8,0.6h-1.6
		V28.1z"/>
	<path class="st0" d="M328.7,90.9c1.8-0.1,3.6-0.4,5.3-0.9c1.7-0.5,3.4-1.3,4.9-2.3c1.5-1,2.9-2.5,4-4.3c1.2-1.8,2.1-4.2,2.8-7
		c0.7-2.8,1-6.3,1-10.4V45.4c0-4.1-0.3-7.5-1-10.4c-0.7-2.8-1.6-5.2-2.8-7s-2.5-3.3-4-4.3c-1.5-1-3.2-1.8-4.9-2.3
		c-1.7-0.5-3.5-0.8-5.3-0.9c-1.8-0.1-3.6-0.1-5.2-0.1h-11.1V91h11.1C325.1,91,326.8,91,328.7,90.9z M323,28.1h2.7
		c1.9,0,3.5,0.2,4.8,0.7c1.3,0.5,2.2,1.4,3,2.6c0.7,1.3,1.2,3,1.5,5.1c0.3,2.2,0.4,4.9,0.4,8.2v21.9c0,3.3-0.1,6.1-0.4,8.2
		c-0.3,2.2-0.8,3.9-1.5,5.1c-0.7,1.3-1.7,2.1-3,2.6c-1.3,0.5-2.9,0.7-4.8,0.7H323V28.1z"/>
	<path class="st0" d="M356.9,87c1.3,1.4,2.9,2.5,5.1,3.4c2.1,0.9,4.8,1.3,8,1.3c2.6,0,4.9-0.4,7-1.1c2.1-0.8,3.8-1.8,5.3-3.3
		c1.5-1.4,2.6-3.1,3.4-5.1c0.8-2,1.2-4.3,1.2-6.8c0-3-0.6-5.9-1.8-8.6c-1.2-2.7-3-5.6-5.2-8.5l-12.5-15.1c-0.5-0.7-1-1.4-1.4-2
		c-0.4-0.6-0.8-1.3-1.1-2c-0.3-0.7-0.5-1.4-0.7-2.2c-0.2-0.8-0.2-1.7-0.2-2.7c0-1.9,0.5-3.4,1.5-4.5c1-1.1,2.5-1.7,4.5-1.7
		c2.4,0,4.2,1,5.3,3c1.1,2,1.6,4.9,1.6,8.6v3.4h8.3c0.3-1.5,0.6-3,0.8-4.2c0.2-1.3,0.4-2.7,0.4-4.2c0-1.8-0.3-3.6-0.8-5.4
		c-0.5-1.8-1.4-3.4-2.6-4.8c-1.2-1.4-2.9-2.6-5-3.5c-2.1-0.9-4.7-1.3-7.8-1.3c-2.6,0-4.9,0.4-6.9,1.2c-2,0.8-3.7,1.9-5.1,3.3
		c-1.4,1.4-2.4,3.1-3.2,5.1c-0.7,2-1.1,4.1-1.1,6.5c0,2.9,0.5,5.7,1.6,8.3c1.1,2.6,2.6,5.1,4.6,7.7l11.2,13.3c1,1.2,1.8,2.4,2.4,3.4
		c0.6,1,1.1,2,1.5,2.9c0.4,0.9,0.6,1.8,0.8,2.8c0.2,0.9,0.2,1.9,0.2,3c0,2.2-0.5,3.8-1.6,4.9s-2.6,1.7-4.7,1.7
		c-1.3,0-2.4-0.3-3.3-0.8c-0.9-0.5-1.6-1.3-2.2-2.3c-0.5-1-0.9-2.2-1.2-3.7c-0.2-1.5-0.4-3.1-0.4-5.1v-3.4h-8.3
		c-0.4,1.5-0.6,2.9-0.8,4.2c-0.2,1.3-0.3,2.7-0.3,4.2c0,1.9,0.3,3.7,0.8,5.5C354.8,84,355.6,85.6,356.9,87z"/>
	<path class="st0" d="M140,0h-4H0v112h136h4h271V0H140z M54.2,73.2c0,2.6-0.3,4.8-0.9,6.7c-0.6,1.9-1.4,3.5-2.4,4.8
		c-1,1.3-2.2,2.4-3.7,3.3c-1.4,0.9-3,1.5-4.7,2c-1.7,0.5-3.5,0.8-5.4,1c-1.9,0.2-3.9,0.3-5.9,0.3H20V20.6h10.9c1.6,0,3.3,0.1,5,0.2
		c1.7,0.1,3.4,0.3,5,0.7c1.6,0.4,3.2,0.9,4.7,1.6c1.5,0.7,2.7,1.6,3.8,2.8c1.1,1.2,2,2.7,2.6,4.4c0.7,1.8,1,3.9,1,6.3v3.4
		c0,1.9-0.3,3.6-0.8,5.2c-0.5,1.6-1.3,3-2.1,4.2c-0.9,1.2-1.9,2.2-3,3c-1.1,0.8-2.3,1.3-3.5,1.6v0.3c3.5,0.6,6.2,2.3,8,5
		c1.8,2.7,2.7,6.1,2.7,10.3V73.2z M74.3,91.3H63.5V20.6h10.8V91.3z M120,91.3h-7.1l-1.2-6.7c-1.4,2.6-2.9,4.5-4.7,5.7
		c-1.8,1.1-3.8,1.7-6.3,1.7c-0.8,0-1.8-0.1-2.9-0.3c-1.1-0.2-2.3-0.6-3.4-1.1c-1.2-0.6-2.3-1.4-3.5-2.5c-1.1-1.1-2.2-2.5-3.1-4.2
		c-0.9-1.8-1.6-3.9-2.2-6.5c-0.6-2.6-0.8-5.6-0.8-9.1v-25c0-3.6,0.3-6.6,0.9-9.1c0.6-2.5,1.4-4.7,2.3-6.4c1-1.7,2.1-3.1,3.3-4.1
		c1.3-1,2.6-1.8,3.9-2.3c1.4-0.5,2.7-0.9,4-1.1c1.3-0.2,2.6-0.2,3.7-0.2c2.9,0,5.3,0.4,7.3,1.2c2,0.8,3.6,1.9,4.8,3.2
		c1.2,1.4,2.1,3,2.7,4.8c0.5,1.8,0.8,3.8,0.8,5.8c0,1.5-0.1,2.9-0.3,4.2c-0.2,1.3-0.4,2.7-0.7,4.2h-8.6v-3.4
		c0-7.8-2.1-11.6-6.3-11.6c-1.1,0-2.1,0.2-3,0.6c-0.8,0.4-1.5,1-2.1,2c-0.6,0.9-1,2.1-1.2,3.7c-0.3,1.5-0.4,3.4-0.4,5.7v32
		c0,2.2,0.1,4,0.4,5.5c0.3,1.5,0.7,2.6,1.2,3.5c0.5,0.9,1.2,1.5,2,1.9c0.8,0.4,1.8,0.6,2.9,0.6c1.2,0,2.2-0.3,3.1-0.9
		c0.9-0.6,1.6-1.5,2.1-2.5c0.6-1.1,1-2.3,1.2-3.8c0.3-1.5,0.4-3,0.4-4.8v-9.2H104v-7h16V91.3z M407,108H140V4h267V108z"/>
</g>
</svg>
